<?xml version="1.0" encoding="UTF-8" standalone="no"?>
<!DOCTYPE svg PUBLIC "-//W3C//DTD SVG 1.1//EN"
 "http://www.w3.org/Graphics/SVG/1.1/DTD/svg11.dtd">
<!-- Generated by graphviz version 2.40.1 (20161225.0304)
 -->
<!-- Title: snakemake_dag Pages: 1 -->
<svg width="178pt" height="260pt"
 viewBox="0.00 0.00 178.49 260.00" xmlns="http://www.w3.org/2000/svg" xmlns:xlink="http://www.w3.org/1999/xlink">
<g id="graph0" class="graph" transform="scale(1 1) rotate(0) translate(4 256)">
<title>snakemake_dag</title>
<polygon fill="#ffffff" stroke="transparent" points="-4,4 -4,-256 174.4897,-256 174.4897,4 -4,4"/>
<!-- 0 -->
<g id="node1" class="node">
<title>0</title>
<path fill="none" stroke="#88d856" stroke-width="2" stroke-dasharray="5,2" d="M158.5685,-108C158.5685,-108 105.2537,-108 105.2537,-108 99.2537,-108 93.2537,-102 93.2537,-96 93.2537,-96 93.2537,-84 93.2537,-84 93.2537,-78 99.2537,-72 105.2537,-72 105.2537,-72 158.5685,-72 158.5685,-72 164.5685,-72 170.5685,-78 170.5685,-84 170.5685,-84 170.5685,-96 170.5685,-96 170.5685,-102 164.5685,-108 158.5685,-108"/>
<text text-anchor="middle" x="131.9111" y="-87" font-family="sans" font-size="10.00" fill="#000000">bowtie2_align</text>
</g>
<!-- 1 -->
<g id="node2" class="node">
<title>1</title>
<path fill="none" stroke="#d8bc56" stroke-width="2" stroke-dasharray="5,2" d="M146.9111,-36C146.9111,-36 116.9111,-36 116.9111,-36 110.9111,-36 104.9111,-30 104.9111,-24 104.9111,-24 104.9111,-12 104.9111,-12 104.9111,-6 110.9111,0 116.9111,0 116.9111,0 146.9111,0 146.9111,0 152.9111,0 158.9111,-6 158.9111,-12 158.9111,-12 158.9111,-24 158.9111,-24 158.9111,-30 152.9111,-36 146.9111,-36"/>
<text text-anchor="middle" x="131.9111" y="-15" font-family="sans" font-size="10.00" fill="#000000">NRF</text>
</g>
<!-- 0&#45;&gt;1 -->
<g id="edge2" class="edge">
<title>0&#45;&gt;1</title>
<path fill="none" stroke="#c0c0c0" stroke-width="2" d="M131.9111,-71.8314C131.9111,-64.131 131.9111,-54.9743 131.9111,-46.4166"/>
<polygon fill="#c0c0c0" stroke="#c0c0c0" stroke-width="2" points="135.4112,-46.4132 131.9111,-36.4133 128.4112,-46.4133 135.4112,-46.4132"/>
</g>
<!-- 2 -->
<g id="node3" class="node">
<title>2</title>
<path fill="none" stroke="#56c1d8" stroke-width="2" stroke-dasharray="5,2" d="M71.7336,-180C71.7336,-180 12.0887,-180 12.0887,-180 6.0887,-180 .0887,-174 .0887,-168 .0887,-168 .0887,-156 .0887,-156 .0887,-150 6.0887,-144 12.0887,-144 12.0887,-144 71.7336,-144 71.7336,-144 77.7336,-144 83.7336,-150 83.7336,-156 83.7336,-156 83.7336,-168 83.7336,-168 83.7336,-174 77.7336,-180 71.7336,-180"/>
<text text-anchor="middle" x="41.9111" y="-159" font-family="sans" font-size="10.00" fill="#000000">fastq_to_fastqc</text>
</g>
<!-- 3 -->
<g id="node4" class="node">
<title>3</title>
<path fill="none" stroke="#568ad8" stroke-width="2" stroke-dasharray="5,2" d="M150.3709,-180C150.3709,-180 113.4514,-180 113.4514,-180 107.4514,-180 101.4514,-174 101.4514,-168 101.4514,-168 101.4514,-156 101.4514,-156 101.4514,-150 107.4514,-144 113.4514,-144 113.4514,-144 150.3709,-144 150.3709,-144 156.3709,-144 162.3709,-150 162.3709,-156 162.3709,-156 162.3709,-168 162.3709,-168 162.3709,-174 156.3709,-180 150.3709,-180"/>
<text text-anchor="middle" x="131.9111" y="-159" font-family="sans" font-size="10.00" fill="#000000">trimgalore</text>
</g>
<!-- 3&#45;&gt;0 -->
<g id="edge1" class="edge">
<title>3&#45;&gt;0</title>
<path fill="none" stroke="#c0c0c0" stroke-width="2" d="M131.9111,-143.8314C131.9111,-136.131 131.9111,-126.9743 131.9111,-118.4166"/>
<polygon fill="#c0c0c0" stroke="#c0c0c0" stroke-width="2" points="135.4112,-118.4132 131.9111,-108.4133 128.4112,-118.4133 135.4112,-118.4132"/>
</g>
<!-- 4 -->
<g id="node5" class="node">
<title>4</title>
<path fill="none" stroke="#56d8c1" stroke-width="2" stroke-dasharray="5,2" d="M130.5173,-252C130.5173,-252 43.305,-252 43.305,-252 37.305,-252 31.305,-246 31.305,-240 31.305,-240 31.305,-228 31.305,-228 31.305,-222 37.305,-216 43.305,-216 43.305,-216 130.5173,-216 130.5173,-216 136.5173,-216 142.5173,-222 142.5173,-228 142.5173,-228 142.5173,-240 142.5173,-240 142.5173,-246 136.5173,-252 130.5173,-252"/>
<text text-anchor="middle" x="86.9111" y="-236" font-family="sans" font-size="10.00" fill="#000000">sra_to_fastq</text>
<text text-anchor="middle" x="86.9111" y="-226" font-family="sans" font-size="10.00" fill="#000000">sample: Control_rep1</text>
</g>
<!-- 4&#45;&gt;2 -->
<g id="edge3" class="edge">
<title>4&#45;&gt;2</title>
<path fill="none" stroke="#c0c0c0" stroke-width="2" d="M75.5557,-215.8314C70.4785,-207.7079 64.3885,-197.9637 58.7935,-189.0118"/>
<polygon fill="#c0c0c0" stroke="#c0c0c0" stroke-width="2" points="61.6875,-187.0383 53.4194,-180.4133 55.7515,-190.7483 61.6875,-187.0383"/>
</g>
<!-- 4&#45;&gt;3 -->
<g id="edge4" class="edge">
<title>4&#45;&gt;3</title>
<path fill="none" stroke="#c0c0c0" stroke-width="2" d="M98.2665,-215.8314C103.3437,-207.7079 109.4338,-197.9637 115.0288,-189.0118"/>
<polygon fill="#c0c0c0" stroke="#c0c0c0" stroke-width="2" points="118.0708,-190.7483 120.4028,-180.4133 112.1348,-187.0383 118.0708,-190.7483"/>
</g>
</g>
</svg>
