<?xml version="1.0" encoding="UTF-8" standalone="no"?>
<!DOCTYPE svg PUBLIC "-//W3C//DTD SVG 1.1//EN"
 "http://www.w3.org/Graphics/SVG/1.1/DTD/svg11.dtd">
<!-- Generated by graphviz version 2.40.1 (20161225.0304)
 -->
<!-- Title: snakemake_dag Pages: 1 -->
<svg width="710pt" height="260pt"
 viewBox="0.00 0.00 710.14 260.00" xmlns="http://www.w3.org/2000/svg" xmlns:xlink="http://www.w3.org/1999/xlink">
<g id="graph0" class="graph" transform="scale(1 1) rotate(0) translate(4 256)">
<title>snakemake_dag</title>
<polygon fill="#ffffff" stroke="transparent" points="-4,4 -4,-256 706.1401,-256 706.1401,4 -4,4"/>
<!-- 0 -->
<g id="node1" class="node">
<title>0</title>
<path fill="none" stroke="#bed856" stroke-width="2" stroke-dasharray="5,2" d="M90.229,-36C90.229,-36 60.229,-36 60.229,-36 54.229,-36 48.229,-30 48.229,-24 48.229,-24 48.229,-12 48.229,-12 48.229,-6 54.229,0 60.229,0 60.229,0 90.229,0 90.229,0 96.229,0 102.229,-6 102.229,-12 102.229,-12 102.229,-24 102.229,-24 102.229,-30 96.229,-36 90.229,-36"/>
<text text-anchor="middle" x="75.229" y="-15" font-family="sans" font-size="10.00" fill="#000000">NRF</text>
</g>
<!-- 1 -->
<g id="node2" class="node">
<title>1</title>
<path fill="none" stroke="#bed856" stroke-width="2" stroke-dasharray="5,2" d="M402.229,-36C402.229,-36 372.229,-36 372.229,-36 366.229,-36 360.229,-30 360.229,-24 360.229,-24 360.229,-12 360.229,-12 360.229,-6 366.229,0 372.229,0 372.229,0 402.229,0 402.229,0 408.229,0 414.229,-6 414.229,-12 414.229,-12 414.229,-24 414.229,-24 414.229,-30 408.229,-36 402.229,-36"/>
<text text-anchor="middle" x="387.229" y="-15" font-family="sans" font-size="10.00" fill="#000000">NRF</text>
</g>
<!-- 2 -->
<g id="node3" class="node">
<title>2</title>
<path fill="none" stroke="#56d88a" stroke-width="2" stroke-dasharray="5,2" d="M238.8864,-108C238.8864,-108 185.5716,-108 185.5716,-108 179.5716,-108 173.5716,-102 173.5716,-96 173.5716,-96 173.5716,-84 173.5716,-84 173.5716,-78 179.5716,-72 185.5716,-72 185.5716,-72 238.8864,-72 238.8864,-72 244.8864,-72 250.8864,-78 250.8864,-84 250.8864,-84 250.8864,-96 250.8864,-96 250.8864,-102 244.8864,-108 238.8864,-108"/>
<text text-anchor="middle" x="212.229" y="-87" font-family="sans" font-size="10.00" fill="#000000">bowtie2_align</text>
</g>
<!-- 7 -->
<g id="node8" class="node">
<title>7</title>
<path fill="none" stroke="#568ad8" stroke-width="2" stroke-dasharray="5,2" d="M325.8258,-36C325.8258,-36 278.6322,-36 278.6322,-36 272.6322,-36 266.6322,-30 266.6322,-24 266.6322,-24 266.6322,-12 266.6322,-12 266.6322,-6 272.6322,0 278.6322,0 278.6322,0 325.8258,0 325.8258,0 331.8258,0 337.8258,-6 337.8258,-12 337.8258,-12 337.8258,-24 337.8258,-24 337.8258,-30 331.8258,-36 325.8258,-36"/>
<text text-anchor="middle" x="302.229" y="-15" font-family="sans" font-size="10.00" fill="#000000">peak_calling</text>
</g>
<!-- 2&#45;&gt;7 -->
<g id="edge9" class="edge">
<title>2&#45;&gt;7</title>
<path fill="none" stroke="#c0c0c0" stroke-width="2" d="M234.9398,-71.8314C246.025,-62.9632 259.5244,-52.1637 271.5142,-42.5718"/>
<polygon fill="#c0c0c0" stroke="#c0c0c0" stroke-width="2" points="273.9032,-45.1429 279.5255,-36.1628 269.5303,-39.6768 273.9032,-45.1429"/>
</g>
<!-- 10 -->
<g id="node11" class="node">
<title>10</title>
<path fill="none" stroke="#bed856" stroke-width="2" stroke-dasharray="5,2" d="M227.229,-36C227.229,-36 197.229,-36 197.229,-36 191.229,-36 185.229,-30 185.229,-24 185.229,-24 185.229,-12 185.229,-12 185.229,-6 191.229,0 197.229,0 197.229,0 227.229,0 227.229,0 233.229,0 239.229,-6 239.229,-12 239.229,-12 239.229,-24 239.229,-24 239.229,-30 233.229,-36 227.229,-36"/>
<text text-anchor="middle" x="212.229" y="-15" font-family="sans" font-size="10.00" fill="#000000">NRF</text>
</g>
<!-- 2&#45;&gt;10 -->
<g id="edge14" class="edge">
<title>2&#45;&gt;10</title>
<path fill="none" stroke="#c0c0c0" stroke-width="2" d="M212.229,-71.8314C212.229,-64.131 212.229,-54.9743 212.229,-46.4166"/>
<polygon fill="#c0c0c0" stroke="#c0c0c0" stroke-width="2" points="215.7291,-46.4132 212.229,-36.4133 208.7291,-46.4133 215.7291,-46.4132"/>
</g>
<!-- 3 -->
<g id="node4" class="node">
<title>3</title>
<path fill="none" stroke="#bed856" stroke-width="2" stroke-dasharray="5,2" d="M542.229,-36C542.229,-36 512.229,-36 512.229,-36 506.229,-36 500.229,-30 500.229,-24 500.229,-24 500.229,-12 500.229,-12 500.229,-6 506.229,0 512.229,0 512.229,0 542.229,0 542.229,0 548.229,0 554.229,-6 554.229,-12 554.229,-12 554.229,-24 554.229,-24 554.229,-30 548.229,-36 542.229,-36"/>
<text text-anchor="middle" x="527.229" y="-15" font-family="sans" font-size="10.00" fill="#000000">NRF</text>
</g>
<!-- 4 -->
<g id="node5" class="node">
<title>4</title>
<path fill="none" stroke="#59d856" stroke-width="2" stroke-dasharray="5,2" d="M330.0515,-180C330.0515,-180 270.4066,-180 270.4066,-180 264.4066,-180 258.4066,-174 258.4066,-168 258.4066,-168 258.4066,-156 258.4066,-156 258.4066,-150 264.4066,-144 270.4066,-144 270.4066,-144 330.0515,-144 330.0515,-144 336.0515,-144 342.0515,-150 342.0515,-156 342.0515,-156 342.0515,-168 342.0515,-168 342.0515,-174 336.0515,-180 330.0515,-180"/>
<text text-anchor="middle" x="300.229" y="-159" font-family="sans" font-size="10.00" fill="#000000">fastq_to_fastqc</text>
</g>
<!-- 5 -->
<g id="node6" class="node">
<title>5</title>
<path fill="none" stroke="#56d88a" stroke-width="2" stroke-dasharray="5,2" d="M413.8864,-108C413.8864,-108 360.5716,-108 360.5716,-108 354.5716,-108 348.5716,-102 348.5716,-96 348.5716,-96 348.5716,-84 348.5716,-84 348.5716,-78 354.5716,-72 360.5716,-72 360.5716,-72 413.8864,-72 413.8864,-72 419.8864,-72 425.8864,-78 425.8864,-84 425.8864,-84 425.8864,-96 425.8864,-96 425.8864,-102 419.8864,-108 413.8864,-108"/>
<text text-anchor="middle" x="387.229" y="-87" font-family="sans" font-size="10.00" fill="#000000">bowtie2_align</text>
</g>
<!-- 5&#45;&gt;1 -->
<g id="edge2" class="edge">
<title>5&#45;&gt;1</title>
<path fill="none" stroke="#c0c0c0" stroke-width="2" d="M387.229,-71.8314C387.229,-64.131 387.229,-54.9743 387.229,-46.4166"/>
<polygon fill="#c0c0c0" stroke="#c0c0c0" stroke-width="2" points="390.7291,-46.4132 387.229,-36.4133 383.7291,-46.4133 390.7291,-46.4132"/>
</g>
<!-- 5&#45;&gt;7 -->
<g id="edge8" class="edge">
<title>5&#45;&gt;7</title>
<path fill="none" stroke="#c0c0c0" stroke-width="2" d="M365.7799,-71.8314C355.4112,-63.0485 342.8061,-52.3712 331.5645,-42.8489"/>
<polygon fill="#c0c0c0" stroke="#c0c0c0" stroke-width="2" points="333.5639,-39.9556 323.6712,-36.1628 329.0395,-45.297 333.5639,-39.9556"/>
</g>
<!-- 6 -->
<g id="node7" class="node">
<title>6</title>
<path fill="none" stroke="#56d88a" stroke-width="2" stroke-dasharray="5,2" d="M101.8864,-108C101.8864,-108 48.5716,-108 48.5716,-108 42.5716,-108 36.5716,-102 36.5716,-96 36.5716,-96 36.5716,-84 36.5716,-84 36.5716,-78 42.5716,-72 48.5716,-72 48.5716,-72 101.8864,-72 101.8864,-72 107.8864,-72 113.8864,-78 113.8864,-84 113.8864,-84 113.8864,-96 113.8864,-96 113.8864,-102 107.8864,-108 101.8864,-108"/>
<text text-anchor="middle" x="75.229" y="-87" font-family="sans" font-size="10.00" fill="#000000">bowtie2_align</text>
</g>
<!-- 6&#45;&gt;0 -->
<g id="edge1" class="edge">
<title>6&#45;&gt;0</title>
<path fill="none" stroke="#c0c0c0" stroke-width="2" d="M75.229,-71.8314C75.229,-64.131 75.229,-54.9743 75.229,-46.4166"/>
<polygon fill="#c0c0c0" stroke="#c0c0c0" stroke-width="2" points="78.7291,-46.4132 75.229,-36.4133 71.7291,-46.4133 78.7291,-46.4132"/>
</g>
<!-- 6&#45;&gt;7 -->
<g id="edge11" class="edge">
<title>6&#45;&gt;7</title>
<path fill="none" stroke="#c0c0c0" stroke-width="2" d="M114.1169,-78.0951C149.2237,-67.2922 202.2659,-50.8324 248.229,-36 251.0989,-35.0739 254.0518,-34.1128 257.0273,-33.1382"/>
<polygon fill="#c0c0c0" stroke="#c0c0c0" stroke-width="2" points="258.1308,-36.4598 266.5331,-30.006 255.94,-29.8114 258.1308,-36.4598"/>
</g>
<!-- 8 -->
<g id="node9" class="node">
<title>8</title>
<path fill="none" stroke="#56d88a" stroke-width="2" stroke-dasharray="5,2" d="M553.8864,-108C553.8864,-108 500.5716,-108 500.5716,-108 494.5716,-108 488.5716,-102 488.5716,-96 488.5716,-96 488.5716,-84 488.5716,-84 488.5716,-78 494.5716,-72 500.5716,-72 500.5716,-72 553.8864,-72 553.8864,-72 559.8864,-72 565.8864,-78 565.8864,-84 565.8864,-84 565.8864,-96 565.8864,-96 565.8864,-102 559.8864,-108 553.8864,-108"/>
<text text-anchor="middle" x="527.229" y="-87" font-family="sans" font-size="10.00" fill="#000000">bowtie2_align</text>
</g>
<!-- 8&#45;&gt;3 -->
<g id="edge4" class="edge">
<title>8&#45;&gt;3</title>
<path fill="none" stroke="#c0c0c0" stroke-width="2" d="M527.229,-71.8314C527.229,-64.131 527.229,-54.9743 527.229,-46.4166"/>
<polygon fill="#c0c0c0" stroke="#c0c0c0" stroke-width="2" points="530.7291,-46.4132 527.229,-36.4133 523.7291,-46.4133 530.7291,-46.4132"/>
</g>
<!-- 8&#45;&gt;7 -->
<g id="edge10" class="edge">
<title>8&#45;&gt;7</title>
<path fill="none" stroke="#c0c0c0" stroke-width="2" d="M488.5832,-78.8002C452.7948,-68.2731 398.1778,-51.8126 351.229,-36 350.0212,-35.5932 348.7983,-35.1768 347.5655,-34.753"/>
<polygon fill="#c0c0c0" stroke="#c0c0c0" stroke-width="2" points="348.6043,-31.4084 338.0095,-31.3986 346.2858,-38.0133 348.6043,-31.4084"/>
</g>
<!-- 9 -->
<g id="node10" class="node">
<title>9</title>
<path fill="none" stroke="#59d856" stroke-width="2" stroke-dasharray="5,2" d="M690.0515,-180C690.0515,-180 630.4066,-180 630.4066,-180 624.4066,-180 618.4066,-174 618.4066,-168 618.4066,-168 618.4066,-156 618.4066,-156 618.4066,-150 624.4066,-144 630.4066,-144 630.4066,-144 690.0515,-144 690.0515,-144 696.0515,-144 702.0515,-150 702.0515,-156 702.0515,-156 702.0515,-168 702.0515,-168 702.0515,-174 696.0515,-180 690.0515,-180"/>
<text text-anchor="middle" x="660.229" y="-159" font-family="sans" font-size="10.00" fill="#000000">fastq_to_fastqc</text>
</g>
<!-- 11 -->
<g id="node12" class="node">
<title>11</title>
<path fill="none" stroke="#59d856" stroke-width="2" stroke-dasharray="5,2" d="M150.0515,-180C150.0515,-180 90.4066,-180 90.4066,-180 84.4066,-180 78.4066,-174 78.4066,-168 78.4066,-168 78.4066,-156 78.4066,-156 78.4066,-150 84.4066,-144 90.4066,-144 90.4066,-144 150.0515,-144 150.0515,-144 156.0515,-144 162.0515,-150 162.0515,-156 162.0515,-156 162.0515,-168 162.0515,-168 162.0515,-174 156.0515,-180 150.0515,-180"/>
<text text-anchor="middle" x="120.229" y="-159" font-family="sans" font-size="10.00" fill="#000000">fastq_to_fastqc</text>
</g>
<!-- 12 -->
<g id="node13" class="node">
<title>12</title>
<path fill="none" stroke="#59d856" stroke-width="2" stroke-dasharray="5,2" d="M510.0515,-180C510.0515,-180 450.4066,-180 450.4066,-180 444.4066,-180 438.4066,-174 438.4066,-168 438.4066,-168 438.4066,-156 438.4066,-156 438.4066,-150 444.4066,-144 450.4066,-144 450.4066,-144 510.0515,-144 510.0515,-144 516.0515,-144 522.0515,-150 522.0515,-156 522.0515,-156 522.0515,-168 522.0515,-168 522.0515,-174 516.0515,-180 510.0515,-180"/>
<text text-anchor="middle" x="480.229" y="-159" font-family="sans" font-size="10.00" fill="#000000">fastq_to_fastqc</text>
</g>
<!-- 13 -->
<g id="node14" class="node">
<title>13</title>
<path fill="none" stroke="#56c1d8" stroke-width="2" stroke-dasharray="5,2" d="M228.6888,-180C228.6888,-180 191.7692,-180 191.7692,-180 185.7692,-180 179.7692,-174 179.7692,-168 179.7692,-168 179.7692,-156 179.7692,-156 179.7692,-150 185.7692,-144 191.7692,-144 191.7692,-144 228.6888,-144 228.6888,-144 234.6888,-144 240.6888,-150 240.6888,-156 240.6888,-156 240.6888,-168 240.6888,-168 240.6888,-174 234.6888,-180 228.6888,-180"/>
<text text-anchor="middle" x="210.229" y="-159" font-family="sans" font-size="10.00" fill="#000000">trimgalore</text>
</g>
<!-- 13&#45;&gt;2 -->
<g id="edge3" class="edge">
<title>13&#45;&gt;2</title>
<path fill="none" stroke="#c0c0c0" stroke-width="2" d="M210.7337,-143.8314C210.9476,-136.131 211.2019,-126.9743 211.4397,-118.4166"/>
<polygon fill="#c0c0c0" stroke="#c0c0c0" stroke-width="2" points="214.9384,-118.5066 211.7175,-108.4133 207.9411,-118.3122 214.9384,-118.5066"/>
</g>
<!-- 14 -->
<g id="node15" class="node">
<title>14</title>
<path fill="none" stroke="#d8bc56" stroke-width="2" stroke-dasharray="5,2" d="M278.4999,-252C278.4999,-252 193.9582,-252 193.9582,-252 187.9582,-252 181.9582,-246 181.9582,-240 181.9582,-240 181.9582,-228 181.9582,-228 181.9582,-222 187.9582,-216 193.9582,-216 193.9582,-216 278.4999,-216 278.4999,-216 284.4999,-216 290.4999,-222 290.4999,-228 290.4999,-228 290.4999,-240 290.4999,-240 290.4999,-246 284.4999,-252 278.4999,-252"/>
<text text-anchor="middle" x="236.229" y="-236" font-family="sans" font-size="10.00" fill="#000000">sra_to_fastq</text>
<text text-anchor="middle" x="236.229" y="-226" font-family="sans" font-size="10.00" fill="#000000">sample: FoxA1_rep2</text>
</g>
<!-- 14&#45;&gt;4 -->
<g id="edge5" class="edge">
<title>14&#45;&gt;4</title>
<path fill="none" stroke="#c0c0c0" stroke-width="2" d="M252.3789,-215.8314C259.9007,-207.3694 268.9855,-197.1489 277.2094,-187.8971"/>
<polygon fill="#c0c0c0" stroke="#c0c0c0" stroke-width="2" points="279.8339,-190.2127 283.8617,-180.4133 274.602,-185.5621 279.8339,-190.2127"/>
</g>
<!-- 14&#45;&gt;13 -->
<g id="edge17" class="edge">
<title>14&#45;&gt;13</title>
<path fill="none" stroke="#c0c0c0" stroke-width="2" d="M229.6681,-215.8314C226.8263,-207.9617 223.4353,-198.5712 220.2871,-189.8533"/>
<polygon fill="#c0c0c0" stroke="#c0c0c0" stroke-width="2" points="223.5667,-188.63 216.8782,-180.4133 216.9828,-191.0076 223.5667,-188.63"/>
</g>
<!-- 15 -->
<g id="node16" class="node">
<title>15</title>
<path fill="none" stroke="#56c1d8" stroke-width="2" stroke-dasharray="5,2" d="M408.6888,-180C408.6888,-180 371.7692,-180 371.7692,-180 365.7692,-180 359.7692,-174 359.7692,-168 359.7692,-168 359.7692,-156 359.7692,-156 359.7692,-150 365.7692,-144 371.7692,-144 371.7692,-144 408.6888,-144 408.6888,-144 414.6888,-144 420.6888,-150 420.6888,-156 420.6888,-156 420.6888,-168 420.6888,-168 420.6888,-174 414.6888,-180 408.6888,-180"/>
<text text-anchor="middle" x="390.229" y="-159" font-family="sans" font-size="10.00" fill="#000000">trimgalore</text>
</g>
<!-- 15&#45;&gt;5 -->
<g id="edge6" class="edge">
<title>15&#45;&gt;5</title>
<path fill="none" stroke="#c0c0c0" stroke-width="2" d="M389.472,-143.8314C389.1511,-136.131 388.7696,-126.9743 388.413,-118.4166"/>
<polygon fill="#c0c0c0" stroke="#c0c0c0" stroke-width="2" points="391.9096,-118.2589 387.9962,-108.4133 384.9157,-118.5503 391.9096,-118.2589"/>
</g>
<!-- 16 -->
<g id="node17" class="node">
<title>16</title>
<path fill="none" stroke="#56c1d8" stroke-width="2" stroke-dasharray="5,2" d="M48.6888,-180C48.6888,-180 11.7692,-180 11.7692,-180 5.7692,-180 -.2308,-174 -.2308,-168 -.2308,-168 -.2308,-156 -.2308,-156 -.2308,-150 5.7692,-144 11.7692,-144 11.7692,-144 48.6888,-144 48.6888,-144 54.6888,-144 60.6888,-150 60.6888,-156 60.6888,-156 60.6888,-168 60.6888,-168 60.6888,-174 54.6888,-180 48.6888,-180"/>
<text text-anchor="middle" x="30.229" y="-159" font-family="sans" font-size="10.00" fill="#000000">trimgalore</text>
</g>
<!-- 16&#45;&gt;6 -->
<g id="edge7" class="edge">
<title>16&#45;&gt;6</title>
<path fill="none" stroke="#c0c0c0" stroke-width="2" d="M41.5844,-143.8314C46.6616,-135.7079 52.7517,-125.9637 58.3466,-117.0118"/>
<polygon fill="#c0c0c0" stroke="#c0c0c0" stroke-width="2" points="61.3887,-118.7483 63.7207,-108.4133 55.4527,-115.0383 61.3887,-118.7483"/>
</g>
<!-- 17 -->
<g id="node18" class="node">
<title>17</title>
<path fill="none" stroke="#56c1d8" stroke-width="2" stroke-dasharray="5,2" d="M588.6888,-180C588.6888,-180 551.7692,-180 551.7692,-180 545.7692,-180 539.7692,-174 539.7692,-168 539.7692,-168 539.7692,-156 539.7692,-156 539.7692,-150 545.7692,-144 551.7692,-144 551.7692,-144 588.6888,-144 588.6888,-144 594.6888,-144 600.6888,-150 600.6888,-156 600.6888,-156 600.6888,-168 600.6888,-168 600.6888,-174 594.6888,-180 588.6888,-180"/>
<text text-anchor="middle" x="570.229" y="-159" font-family="sans" font-size="10.00" fill="#000000">trimgalore</text>
</g>
<!-- 17&#45;&gt;8 -->
<g id="edge12" class="edge">
<title>17&#45;&gt;8</title>
<path fill="none" stroke="#c0c0c0" stroke-width="2" d="M559.3783,-143.8314C554.5268,-135.7079 548.7073,-125.9637 543.361,-117.0118"/>
<polygon fill="#c0c0c0" stroke="#c0c0c0" stroke-width="2" points="546.3582,-115.2041 538.2258,-108.4133 540.3484,-118.7933 546.3582,-115.2041"/>
</g>
<!-- 18 -->
<g id="node19" class="node">
<title>18</title>
<path fill="none" stroke="#d8bc56" stroke-width="2" stroke-dasharray="5,2" d="M658.8352,-252C658.8352,-252 571.6228,-252 571.6228,-252 565.6228,-252 559.6228,-246 559.6228,-240 559.6228,-240 559.6228,-228 559.6228,-228 559.6228,-222 565.6228,-216 571.6228,-216 571.6228,-216 658.8352,-216 658.8352,-216 664.8352,-216 670.8352,-222 670.8352,-228 670.8352,-228 670.8352,-240 670.8352,-240 670.8352,-246 664.8352,-252 658.8352,-252"/>
<text text-anchor="middle" x="615.229" y="-236" font-family="sans" font-size="10.00" fill="#000000">sra_to_fastq</text>
<text text-anchor="middle" x="615.229" y="-226" font-family="sans" font-size="10.00" fill="#000000">sample: Control_rep1</text>
</g>
<!-- 18&#45;&gt;9 -->
<g id="edge13" class="edge">
<title>18&#45;&gt;9</title>
<path fill="none" stroke="#c0c0c0" stroke-width="2" d="M626.5844,-215.8314C631.6616,-207.7079 637.7517,-197.9637 643.3466,-189.0118"/>
<polygon fill="#c0c0c0" stroke="#c0c0c0" stroke-width="2" points="646.3887,-190.7483 648.7207,-180.4133 640.4527,-187.0383 646.3887,-190.7483"/>
</g>
<!-- 18&#45;&gt;17 -->
<g id="edge20" class="edge">
<title>18&#45;&gt;17</title>
<path fill="none" stroke="#c0c0c0" stroke-width="2" d="M603.8736,-215.8314C598.7964,-207.7079 592.7063,-197.9637 587.1114,-189.0118"/>
<polygon fill="#c0c0c0" stroke="#c0c0c0" stroke-width="2" points="590.0053,-187.0383 581.7373,-180.4133 584.0693,-190.7483 590.0053,-187.0383"/>
</g>
<!-- 19 -->
<g id="node20" class="node">
<title>19</title>
<path fill="none" stroke="#d8bc56" stroke-width="2" stroke-dasharray="5,2" d="M125.4999,-252C125.4999,-252 40.9582,-252 40.9582,-252 34.9582,-252 28.9582,-246 28.9582,-240 28.9582,-240 28.9582,-228 28.9582,-228 28.9582,-222 34.9582,-216 40.9582,-216 40.9582,-216 125.4999,-216 125.4999,-216 131.4999,-216 137.4999,-222 137.4999,-228 137.4999,-228 137.4999,-240 137.4999,-240 137.4999,-246 131.4999,-252 125.4999,-252"/>
<text text-anchor="middle" x="83.229" y="-236" font-family="sans" font-size="10.00" fill="#000000">sra_to_fastq</text>
<text text-anchor="middle" x="83.229" y="-226" font-family="sans" font-size="10.00" fill="#000000">sample: FoxA1_rep1</text>
</g>
<!-- 19&#45;&gt;11 -->
<g id="edge15" class="edge">
<title>19&#45;&gt;11</title>
<path fill="none" stroke="#c0c0c0" stroke-width="2" d="M92.5657,-215.8314C96.6533,-207.8771 101.5394,-198.369 106.0599,-189.5723"/>
<polygon fill="#c0c0c0" stroke="#c0c0c0" stroke-width="2" points="109.3089,-190.9074 110.7666,-180.4133 103.0829,-187.7078 109.3089,-190.9074"/>
</g>
<!-- 19&#45;&gt;16 -->
<g id="edge19" class="edge">
<title>19&#45;&gt;16</title>
<path fill="none" stroke="#c0c0c0" stroke-width="2" d="M69.8549,-215.8314C63.8128,-207.6232 56.5527,-197.7606 49.9069,-188.7323"/>
<polygon fill="#c0c0c0" stroke="#c0c0c0" stroke-width="2" points="52.5301,-186.3918 43.7832,-180.4133 46.8927,-190.5415 52.5301,-186.3918"/>
</g>
<!-- 20 -->
<g id="node21" class="node">
<title>20</title>
<path fill="none" stroke="#d8bc56" stroke-width="2" stroke-dasharray="5,2" d="M458.8352,-252C458.8352,-252 371.6228,-252 371.6228,-252 365.6228,-252 359.6228,-246 359.6228,-240 359.6228,-240 359.6228,-228 359.6228,-228 359.6228,-222 365.6228,-216 371.6228,-216 371.6228,-216 458.8352,-216 458.8352,-216 464.8352,-216 470.8352,-222 470.8352,-228 470.8352,-228 470.8352,-240 470.8352,-240 470.8352,-246 464.8352,-252 458.8352,-252"/>
<text text-anchor="middle" x="415.229" y="-236" font-family="sans" font-size="10.00" fill="#000000">sra_to_fastq</text>
<text text-anchor="middle" x="415.229" y="-226" font-family="sans" font-size="10.00" fill="#000000">sample: Control_rep2</text>
</g>
<!-- 20&#45;&gt;12 -->
<g id="edge16" class="edge">
<title>20&#45;&gt;12</title>
<path fill="none" stroke="#c0c0c0" stroke-width="2" d="M431.6312,-215.8314C439.2705,-207.3694 448.4974,-197.1489 456.8497,-187.8971"/>
<polygon fill="#c0c0c0" stroke="#c0c0c0" stroke-width="2" points="459.5028,-190.1813 463.6059,-180.4133 454.3069,-185.4906 459.5028,-190.1813"/>
</g>
<!-- 20&#45;&gt;15 -->
<g id="edge18" class="edge">
<title>20&#45;&gt;15</title>
<path fill="none" stroke="#c0c0c0" stroke-width="2" d="M408.9204,-215.8314C406.2173,-208.0463 402.9974,-198.7729 399.998,-190.1347"/>
<polygon fill="#c0c0c0" stroke="#c0c0c0" stroke-width="2" points="403.209,-188.7119 396.6225,-180.4133 396.5963,-191.0081 403.209,-188.7119"/>
</g>
</g>
</svg>
